<?xml version="1.0" encoding="UTF-8"?>
<svg id="a" data-name="Layer 1" xmlns="http://www.w3.org/2000/svg" width="100" height="100" viewBox="0 0 100 100">
  <path d="M58.5,13.3h0c-.5-.4-1.7-.8-2.3-.7-1.4.3-2.3,1.3-2.3,2.8,0,.8.4,1.6.9,2.1-1,0-1.6.8-1,1.7.6.8,2.4.4,3,1,.9.8,1.2,1.9.9,3.5s-1.4,1.4-1.8.4c-.3-.8-.7-1.6-1.3-1.9-.3-.2-.7-.3-1.1-.3h0c-1.3.1-2.9,1.1-2.4,4.2.2,1.2,1,3,1.4,3.7,1.6,1.9,1.8,3.8,1.5,5.5-.4,2.9-3.8,3-3.9,3-.2,0-3.5-.1-3.9-3-.2-1.7-.1-3.6,1.5-5.5.4-.7,1.2-2.4,1.4-3.7.5-3.1-1.1-4.1-2.4-4.2h0c-.4,0-.8.1-1.1.3-.5.3-1,1.1-1.3,1.9-.4,1-1.5,1.2-1.8-.4s0-2.7.9-3.5c.7-.5,2.5-.1,3-1,.6-.9,0-1.7-1-1.7.6-.5.9-1.3.9-2.1,0-1.6-.9-2.5-2.3-2.8-.7-.1-1.8.3-2.3.7h0s-5.2,3.3-3.9,11.4,7.7,13.6,12.3,13.8h-.1c4.6-.2,11.1-5.7,12.3-13.8,1.4-8.1-3.8-11.4-3.8-11.4ZM50.8,9.6c-.1-.1-.1-.3,0-.4.4-.2.7-.7.7-1.2,0-.8-.7-1.5-1.5-1.5s-1.5.7-1.5,1.5c0,.5.3,1,.7,1.3.1.1.1.3,0,.4-.4.3-.7.7-.7,1.3,0,.8.7,1.5,1.5,1.5s1.5-.7,1.5-1.5c0-.7-.3-1.1-.7-1.4ZM41.5,86.7h0c.5.4,1.7.8,2.3.7,1.4-.3,2.3-1.3,2.3-2.8,0-.8-.4-1.6-.9-2.1,1,0,1.6-.8,1-1.7-.6-.8-2.4-.4-3-1-.9-.8-1.2-1.9-.9-3.5s1.4-1.4,1.8-.4c.3.8.7,1.6,1.3,1.9.3.2.7.3,1.1.3h0c1.3-.1,2.9-1.1,2.4-4.2-.2-1.2-1-3-1.4-3.7-1.6-1.9-1.8-3.8-1.5-5.5.4-2.9,3.8-3,3.9-3,.2,0,3.5.1,3.9,3,.2,1.7.1,3.6-1.5,5.5-.4.7-1.2,2.4-1.4,3.7-.5,3.1,1.1,4.1,2.4,4.2h0c.4,0,.8-.1,1.1-.3.5-.3,1-1.1,1.3-1.9.4-1,1.5-1.2,1.8.4s0,2.7-.9,3.5c-.7.5-2.5.1-3,1-.6.9,0,1.7,1,1.7-.6.5-.9,1.3-.9,2.1,0,1.6.9,2.5,2.3,2.8.7.1,1.8-.3,2.3-.7h0s5.2-3.3,3.9-11.4-7.7-13.6-12.3-13.8h.1c-4.6.2-11.1,5.7-12.3,13.8-1.4,8.1,3.8,11.4,3.8,11.4ZM49.2,90.4c.1.1.1.3,0,.4-.4.3-.7.7-.7,1.3,0,.8.7,1.5,1.5,1.5s1.5-.7,1.5-1.5c0-.5-.3-1-.7-1.3-.1-.1-.1-.3,0-.4.4-.3.7-.7.7-1.3,0-.8-.7-1.5-1.5-1.5s-1.5.7-1.5,1.5c0,.6.3,1,.7,1.3ZM90.4,50.8c.1-.1.3-.1.4,0,.3.4.7.7,1.3.7.8,0,1.5-.7,1.5-1.5s-.7-1.5-1.5-1.5c-.5,0-1,.3-1.3.7-.1.1-.3.1-.4,0-.3-.4-.7-.7-1.3-.7-.8,0-1.5.7-1.5,1.5s.7,1.5,1.5,1.5c.6,0,1-.3,1.3-.7ZM13.3,41.5h0c-.4.5-.8,1.7-.7,2.3.3,1.4,1.3,2.3,2.8,2.3.8,0,1.6-.4,2.1-.9,0,1,.8,1.6,1.7,1,.8-.6.4-2.4,1-3,.8-.9,1.9-1.2,3.5-.9s1.4,1.4.4,1.8c-.8.3-1.6.7-1.9,1.3-.2.3-.3.7-.3,1.1h0c.1,1.3,1.1,2.9,4.2,2.4,1.2-.2,3-1,3.7-1.4,1.9-1.6,3.8-1.8,5.5-1.5,2.9.4,3,3.8,3,3.9,0,.2-.1,3.5-3,3.9-1.7.2-3.6.1-5.5-1.5-.7-.4-2.4-1.2-3.7-1.4-3.1-.5-4.1,1.1-4.2,2.4h0c0,.4.1.8.3,1.1.3.5,1.1,1,1.9,1.3,1,.4,1.2,1.5-.4,1.8s-2.7,0-3.5-.9c-.5-.7-.1-2.5-1-3-.9-.6-1.7,0-1.7,1-.5-.6-1.3-.9-2.1-.9-1.6,0-2.5.9-2.8,2.3-.1.7.3,1.8.7,2.3h0s3.3,5.2,11.4,3.9,13.6-7.7,13.8-12.3v.1c-.2-4.6-5.7-11.1-13.8-12.3-8.1-1.4-11.4,3.8-11.4,3.8ZM9.6,49.2c-.1.1-.3.1-.4,0-.2-.4-.7-.7-1.2-.7-.8,0-1.5.7-1.5,1.5s.7,1.5,1.5,1.5c.5,0,1-.3,1.3-.7.1-.1.3-.1.4,0,.3.4.7.7,1.3.7.8,0,1.5-.7,1.5-1.5s-.7-1.5-1.5-1.5c-.7,0-1.1.3-1.4.7Z"/>
</svg>