<?xml version="1.0" encoding="UTF-8"?>
<svg id="Layer_1" xmlns="http://www.w3.org/2000/svg" width="100" height="100" version="1.1" viewBox="0 0 100 100">
  <!-- Generator: Adobe Illustrator 29.6.1, SVG Export Plug-In . SVG Version: 2.1.1 Build 9)  -->
  <path d="M44.89.32l-9.84,9.72,4.78,4.83c.06.22-.11.31-.21.45-.32.48-3.96,4.11-4.45,4.45-.25.17-.26.3-.61.12-.76-.39-4.35-4.69-4.68-4.69l-4.92,4.92,4.78,5.01-9.94,9.99-9.94-9.99c-.11-.62,4.23-4.02,4.68-4.89.18-.35.05-.35-.12-.61-.32-.47-3.75-3.9-4.21-4.21-.14-.1-.24-.27-.45-.21l-5.04,4.77L.03,15.27c-.11-.3.05-.46.2-.68.51-.76,4.57-4.23,4.57-4.55L-5.01.17-.23-4.96H.01L4.72-.18c.4.07,4.32-4.12,4.89-4.78h.48L14.87.17,5.05,10.04l4.92,4.92,4.83-4.78,5.01,4.78,5.04-4.8,5.04,4.8,4.92-4.92L24.99.17l4.78-5.13h.24L34.72-.18c.4.07,4.32-4.12,4.89-4.78h.48L44.89-.16v.48Z"/>
  <path d="M44.89,99.92v.24l-4.95,4.78-5.01-4.78-5.04,4.8c-.21.01-.33-.13-.49-.23-.41-.27-3.93-3.79-4.2-4.2-.15-.22-.31-.38-.2-.68l9.81-9.89-4.92-4.69-5.04,4.8-4.83-4.78-5.04,4.77c-.62.11-4.02-4.23-4.89-4.68-.35-.18-.35-.05-.61.12-.47.32-3.9,3.75-4.21,4.21-.1.14-.27.24-.21.45l9.82,9.87-4.95,4.9-5.01-4.78c-.32,0-3.79,4.06-4.55,4.57-.24.16-.35.29-.68.2s-4.74-4.55-4.74-4.89l9.84-10.08c0-.33-4.3-3.92-4.69-4.68-.12-.23-.12-.25,0-.48.63-1.22,3.91-3.44,4.81-4.8.33,0,3.92,4.3,4.68,4.69.35.18.35.05.61-.12.47-.32,3.9-3.75,4.21-4.21.1-.14.27-.24.21-.45l-4.78-4.83,9.99-9.94,9.9,9.75c.11.3-.05.46-.2.68-.51.76-4.57,4.23-4.57,4.55l4.8,4.81,5.16-4.92c.91,1.36,4.18,3.57,4.81,4.8.12.23.12.25,0,.48-.45.87-4.79,4.27-4.68,4.89l9.84,9.75Z"/>
  <path d="M69.9,44.87l-4.77,5.04,4.77,5.21-9.94,9.99-4.9-4.95,4.77-5.04-4.7-4.87-5.04,4.77c-.62.11-4.02-4.23-4.89-4.68-.35-.18-.35-.05-.61.12-.47.32-3.9,3.75-4.21,4.21-.1.14-.27.24-.21.45l4.77,5.04-4.9,4.95-9.94-9.99,4.78-5.01c0-.32-4.06-3.79-4.57-4.55-.15-.22-.31-.38-.2-.68l9.73-9.75,5.12,4.9-4.78,4.83,4.7,4.87,5.01-4.78,5.16,4.92,4.8-4.81-4.8-5.04c0-.34,4.41-4.81,4.74-4.89.28-.07.49,0,.68.2l9.45,9.53h-.02Z"/>
  <polygon points="39.83 29.99 34.93 35.12 30.03 30.17 34.93 25.04 39.83 29.99"/>
  <polygon points="24.97 95 20.02 99.9 14.89 95 19.84 90.1 24.97 95"/>
  <polygon points="9.83 29.99 4.93 35.12 .03 30.17 4.93 25.04 9.83 29.99"/>
  <polygon points="39.85 70.04 34.72 74.94 30 70.04 34.72 65.14 39.85 70.04"/>
  <polygon points="9.85 70.04 4.72 74.94 0 70.04 4.72 65.14 9.85 70.04"/>
  <polygon points="24.97 5 20.02 9.9 14.89 5 19.84 .1 24.97 5"/>
</svg>